<?xml version="1.0" encoding="utf-8"?>
<!-- Generator: Adobe Illustrator 24.3.0, SVG Export Plug-In . SVG Version: 6.00 Build 0)  -->
<svg version="1.1" id="レイヤー_1" xmlns="http://www.w3.org/2000/svg" xmlns:xlink="http://www.w3.org/1999/xlink" x="0px"
	 y="0px" viewBox="0 0 136.3 41" style="enable-background:new 0 0 136.3 41;" xml:space="preserve">
<style type="text/css">
	.st0{fill:#E8884E;}
	.st1{fill:#357F94;}
</style>
<circle class="st0" cx="20.7" cy="23.9" r="12.1"/>
<circle class="st1" cx="12.1" cy="17.1" r="12.1"/>
<g>
	<path d="M54.8,17.2v13h-1.1v-12l-3.1,3.1l-0.8-0.8l3.9-3.9v-2.9h-3.6v-1.1h3.6V11h1.1v1.8h1.9v1.1h-1.9v1.8l1.3-1.3l0.8,0.8
		L54.8,17.2z M68.9,30.5l-7.3-7.3l-5.5,5.5L55.3,28l5.5-5.5L59,20.7l0.8-0.8l1.8,1.9l2.3-2.3h-6.5v-1.1H61v-2.5h-3.6v-1.1H61V11h1.1
		v3.7h7.3v1.1h-7.3v2.5h4.4l-4.2,4.2l7.3,7.3L68.9,30.5z"/>
	<path d="M72.4,17.8l-0.7-0.7l6.2-6.2l0.7,0.7L72.4,17.8z M80.4,17.1l-3.8,3.7v9.4h-1.1V18.4l-3.1,3.1l-0.7-0.8l6.2-6.2l0.7,0.8
		l-2,1.9v2.1l3.1-3.1L80.4,17.1z M82.1,14v16.3h-1V14h-2v-1.1c0,0,1,0,2,0v-1.8h1v1.8c0.3,0,0.7,0,0.8,0c0-0.5,0-1.8,0-1.8h1V14
		H82.1z M87,21.5l-4.4-4.4l0.8-0.8l4.4,4.4L87,21.5z M91.2,11.1v1.1h-6.5v-1.1H91.2z M91.2,12.9V14h-1.8v16.3h-4.7v-1.1
		c0,0,2.8,0,3.6,0c0-0.8,0-11.7,0-15.1h-3.6v-1.1H91.2z"/>
	<path d="M98.5,16.8l2.1,2l-0.8,0.8l-1.3-1.3v12h-1.1v-12l-3.1,3.1l-0.8-0.8l3.8-3.9v-1h-3.6v-1.1h3.6v-0.8h-3.6v-1.1h5.4V11h1.1
		v2.9h-1.8v0.8h1.8v1.1h-1.8V16.8z M109.4,20.9v9.4h-1.1V22l-6.7,6.7l-0.8-0.8l7.5-7.5V11h1.1v8.3l3.1-3.1l0.8,0.8L109.4,20.9z
		 M105.2,19.6l-4.4-4.4l0.8-0.8l4.4,4.4L105.2,19.6z M107.1,17.8l-4.4-4.4l0.8-0.8l4.4,4.4L107.1,17.8z"/>
	<path d="M115.7,15.8v-1.1h3.6v-0.8h-3.6v-1.1h5.4V11h1.1v1.8h3.6v1.1H124v0.8h1.8v1.1H115.7z M125.9,16.5v13.8h-8.4V16.5H125.9z
		 M124.8,17.6h-6.2v11.6h6.2V17.6z M120.4,14.7h2.6v-0.8h-2.6V14.7z M135.2,20.7l-6.2,6.2l-0.8-0.8c0,0,4.7-4.8,5.5-5.4l-5.5-5.5
		l3.1-3.1h-3.6v18.2h-1.1V11h7.4c0,0-3.6,3.6-4.2,4.2L135.2,20.7z"/>
</g>
</svg>
